<?xml version="1.0" encoding="UTF-8" standalone="no"?>
<!-- Created with Inkscape (http://www.inkscape.org/) -->

<svg
   width="600mm"
   height="400mm"
   viewBox="0 0 600 400"
   version="1.1"
   id="svg3063"
   xml:space="preserve"
   xmlns:xlink="http://www.w3.org/1999/xlink"
   xmlns="http://www.w3.org/2000/svg"
   xmlns:svg="http://www.w3.org/2000/svg"
   xmlns:rdf="http://www.w3.org/1999/02/22-rdf-syntax-ns#"
   xmlns:cc="http://creativecommons.org/ns#"
   xmlns:dc="http://purl.org/dc/elements/1.1/"><title
     id="title6232">TOYODA</title><defs
     id="defs3060" /><g
     id="layer1"><path
       style="display:inline;fill:#000000;stroke-width:0.264583"
       d="
       M 297.0309,228.30872 c -18.46737,-1.01302 -35.86887,-7.00681 -49.31713,-16.98685 -7.34443,-5.45035 -12.74754,-11.22029 -17.74624,-18.95107 -1.12912,-1.74625 -2.0759,-3.20154 -2.10394,-3.23397 -0.028,-0.0324 -2.30648,-0.42158 -5.06319,-0.86476 -7.46396,-1.19995 -12.48307,-2.82881 -19.28044,-6.25712 -9.71966,-4.9022 -19.7664,-12.29481 -38.78073,-28.53571 -7.96352,-6.80196 -13.20864,-11.16848 -16.53646,-13.76648 -7.31649,-5.7119 -14.01648,-9.14062 -19.38736,-9.92147 -2.6251,-0.38165 -5.10815,0.0993 -8.22086,1.59224 -2.50814,1.203 -3.28068,1.30133 -3.84901,0.48993 -0.35354,-0.50475 -0.3542,-0.67571 -0.006,-1.50945 0.87414,-2.0921 5.06363,-6.80927 8.50963,-9.58143 8.15591,-6.5611 19.28746,-9.57089 32.21386,-8.7101 8.0403,0.53542 13.7425,1.26417 35.18958,4.49733 15.86431,2.39155 25.29778,3.32915 40.08438,3.98403 9.77159,0.43277 9.45585,0.50132 15.13616,-3.28642 2.51642,-1.678 6.06358,-3.8232 7.88259,-4.76711 10.46978,-5.43291 22.67059,-8.80985 36.5125,-10.10592 6.39324,-0.59863 19.57248,-0.40316 25.13542,0.37278 15.12955,2.11035 28.89103,7.25963 40.48125,15.14731 3.78574,2.57636 3.90552,2.60971 9.39271,2.6144 5.76793,0.005 14.75378,-0.3893 21.05105,-0.92356 6.14717,-0.52153 13.6317,-1.49865 32.28072,-4.2143 23.47037,-3.41773 27.8007,-3.82996 35.15432,-3.34655 11.66484,0.76682 19.17256,4.09759 27.16557,12.0519 3.72985,3.71182 5.08222,5.46175 5.31116,6.87255 0.1224,0.75424 0.0374,0.96296 -0.54851,1.34687 -0.68193,0.44681 -0.73612,0.43252 -3.28464,-0.86652 -5.32082,-2.71214 -9.49817,-2.47314 -16.32342,0.93394 -6.30586,3.1478 -13.45184,8.5211 -28.575,21.48648 -16.76008,14.36874 -25.69485,21.11602 -34.89473,26.3515 -7.70853,4.38678 -16.44653,7.4348 -24.26683,8.46487 l -3.33448,0.4392 -2.73204,3.96995 c -3.58243,5.20566 -5.55505,7.62283 -9.24782,11.33192 -11.2275,11.27717 -26.1643,18.75205 -44.5866,22.31266 -6.95823,1.34486 -16.20528,1.96444 -23.41563,1.56893 z 
       "
       id="path6228" /></g><metadata
     id="metadata6230"><rdf:RDF><cc:Work
         rdf:about=""><dc:title>TOYODA</dc:title></cc:Work></rdf:RDF></metadata></svg>
