<?xml version="1.0" encoding="UTF-8" standalone="no"?>
<!-- Created with Inkscape (http://www.inkscape.org/) -->

<svg
   width="600mm"
   height="400mm"
   viewBox="0 0 600 400"
   version="1.1"
   id="svg3063"
   xml:space="preserve"
   xmlns:xlink="http://www.w3.org/1999/xlink"
   xmlns="http://www.w3.org/2000/svg"
   xmlns:svg="http://www.w3.org/2000/svg"
   xmlns:rdf="http://www.w3.org/1999/02/22-rdf-syntax-ns#"
   xmlns:cc="http://creativecommons.org/ns#"
   xmlns:dc="http://purl.org/dc/elements/1.1/"><title
     id="title6232">TOYODA</title><defs
     id="defs3060" /><g
     id="layer1"><path
       style="display:inline;fill:#000000;stroke-width:0.264583"
       d="
       M 297.0309,228.30872 c -18.46737,-1.01302 -35.86887,-7.00681 -49.31713,-16.98685 -7.34443,-5.45035 -12.74754,-11.22029 -17.74624,-18.95107 -1.12912,-1.74625 -2.0759,-3.20154 -2.10394,-3.23397 -0.028,-0.0324 -2.30648,-0.42158 -5.06319,-0.86476 -7.46396,-1.19995 -12.48307,-2.82881 -19.28044,-6.25712 -9.71966,-4.9022 -19.7664,-12.29481 -38.78073,-28.53571 -7.96352,-6.80196 -13.20864,-11.16848 -16.53646,-13.76648 -7.31649,-5.7119 -14.01648,-9.14062 -19.38736,-9.92147 -2.6251,-0.38165 -5.10815,0.0993 -8.22086,1.59224 -2.50814,1.203 -3.28068,1.30133 -3.84901,0.48993 -0.35354,-0.50475 -0.3542,-0.67571 -0.006,-1.50945 0.87414,-2.0921 5.06363,-6.80927 8.50963,-9.58143 8.15591,-6.5611 19.28746,-9.57089 32.21386,-8.7101 8.0403,0.53542 13.7425,1.26417 35.18958,4.49733 15.86431,2.39155 25.29778,3.32915 40.08438,3.98403 9.77159,0.43277 9.45585,0.50132 15.13616,-3.28642 2.51642,-1.678 6.06358,-3.8232 7.88259,-4.76711 10.46978,-5.43291 22.67059,-8.80985 36.5125,-10.10592 6.39324,-0.59863 19.57248,-0.40316 25.13542,0.37278 15.12955,2.11035 28.89103,7.25963 40.48125,15.14731 3.78574,2.57636 3.90552,2.60971 9.39271,2.6144 5.76793,0.005 14.75378,-0.3893 21.05105,-0.92356 6.14717,-0.52153 13.6317,-1.49865 32.28072,-4.2143 23.47037,-3.41773 27.8007,-3.82996 35.15432,-3.34655 11.66484,0.76682 19.17256,4.09759 27.16557,12.0519 3.72985,3.71182 5.08222,5.46175 5.31116,6.87255 0.1224,0.75424 0.0374,0.96296 -0.54851,1.34687 -0.68193,0.44681 -0.73612,0.43252 -3.28464,-0.86652 -5.32082,-2.71214 -9.49817,-2.47314 -16.32342,0.93394 -6.30586,3.1478 -13.45184,8.5211 -28.575,21.48648 -16.76008,14.36874 -25.69485,21.11602 -34.89473,26.3515 -7.70853,4.38678 -16.44653,7.4348 -24.26683,8.46487 l -3.33448,0.4392 -2.73204,3.96995 c -3.58243,5.20566 -5.55505,7.62283 -9.24782,11.33192 -11.2275,11.27717 -26.1643,18.75205 -44.5866,22.31266 -6.95823,1.34486 -16.20528,1.96444 -23.41563,1.56893 z 
       m -4.13716,-11.53011 c -0.1098,-0.1819 -0.66455,-0.92208 -1.23279,-1.64484 -2.42893,-3.08949 -5.16171,-9.91354 -6.65433,-16.6166 -1.80504,-8.10609 -2.79551,-16.98185 -3.19443,-28.62576 -0.14574,-4.25428 -0.24046,-4.62481 -1.18545,-4.63772 -0.93432,-0.0128 -9.95166,-2.44811 -13.22917,-3.57285 -8.70539,-2.98741 -15.88753,-7.57371 -19.79799,-12.64239 -1.74169,-2.25755 -3.72674,-5.75113 -4.16795,-7.33536 -0.73089,-2.62439 -0.71831,-2.61382 -1.50751,-1.26716 -1.06862,1.82346 -2.97348,6.65568 -3.73277,9.46925 -2.02018,7.48579 -2.0715,16.12378 -0.14061,23.66734 2.74639,10.72955 10.08209,21.41819 19.93572,29.04779 8.81694,6.82691 18.13136,11.11006 29.25486,13.45257 5.23554,1.10256 5.94546,1.1912 5.65242,0.70573 z 
       m 21.99654,-0.0837 c 11.96781,-2.07431 24.31433,-7.67809 33.18684,-15.06269 19.09357,-15.89158 25.20138,-39.0254 15.64977,-59.27479 -0.74093,-1.57078 -1.38978,-2.80709 -1.44188,-2.74735 -0.0521,0.0597 -0.60623,1.28344 -1.23141,2.71933 -2.71093,6.22638 -7.1275,11.00826 -13.8162,14.95897 -4.96057,2.92999 -8.37159,4.21696 -17.32802,6.53785 -3.74936,0.97157 -6.83998,1.78202 -6.86804,1.80099 -0.0281,0.019 -0.17447,3.48419 -0.32533,7.70049 -0.45822,12.80571 -2.374,24.69083 -5.33333,33.0869 -0.9893,2.80681 -1.4506,3.7532 -3.27836,6.72596 -1.97524,3.21261 -2.34366,3.96894 -1.93281,3.96791 0.18563,-5.3e-4 1.40908,-0.18657 2.71877,-0.41357 z 
       m -11.14356,-18.35919 c 4.31701,-1.64133 7.60488,-11.62988 8.36466,-25.41181 0.14039,-2.54662 0.25753,-4.95763 0.26031,-5.35782 l 0.005,-0.7276 H 302.1677 291.95867 l 0.17136,2.05052 c 1.14628,13.71628 2.38575,20.1517 4.81963,25.02385 1.77328,3.54975 4.473,5.30646 6.79706,4.42286 z 
       m -81.45764,-29.97588 c -0.23625,-3.23545 0.24948,-10.95888 0.9245,-14.70018 0.92822,-5.14467 3.76639,-12.99778 5.98872,-16.57058 0.62806,-1.00973 1.10852,-1.86928 1.06767,-1.91013 -0.0677,-0.0676 -3.80094,-0.64 -6.39636,-0.98063 -0.58208,-0.0764 -16.6357,-2.34833 -35.6747,-5.04875 -19.039,-2.70043 -35.46962,-4.93944 -36.5125,-4.97558 -1.74165,-0.0603 -1.89614,-0.0226 -1.89614,0.46346 0,0.38583 0.97014,1.17415 3.5817,2.91041 6.07742,4.04051 11.24474,8.14671 23.14122,18.38911 5.64679,4.86166 10.74998,8.96138 14.23394,11.43502 6.96856,4.94773 14.84054,9.22894 20.55877,11.18096 2.72694,0.93089 8.42819,2.1498 10.40959,2.22554 l 0.75229,0.0288 z 
       m 165.43668,1.79798 c 6.30571,-1.32645 15.3348,-5.48024 23.67045,-10.8895 4.46958,-2.90045 6.75261,-4.72867 20.96907,-16.79174 10.92912,-9.27367 15.62791,-12.90464 20.42211,-15.78118 3.54576,-2.12746 3.56962,-2.86969 0.0831,-2.58385 -1.0914,0.0895 -7.34219,0.92889 -13.89062,1.86535 -6.54844,0.93646 -12.32297,1.75936 -12.8323,1.82866 -7.94207,1.08059 -51.75318,7.36393 -51.82622,7.43286 -0.0551,0.052 0.26256,0.66461 0.70592,1.36136 2.21592,3.48242 4.41033,8.8597 5.74677,14.08214 1.347,5.2637 1.56793,7.18462 1.57671,13.709 l 0.008,6.1514 1.76864,1.7e-4 c 0.97276,9e-5 2.59188,-0.17301 3.59809,-0.38467 z 
       m -76.26685,-22.43548 c -1.2204,-8.04476 -3.74151,-15.01394 -6.49051,-17.94187 -1.91221,-2.03668 -3.25138,-2.06499 -5.15246,-0.10893 -1.41954,1.4606 -3.27851,5.1895 -4.34929,8.72424 -0.71924,2.37423 -2.4045,9.51235 -2.4045,10.18452 0,0.17391 3.22578,0.26652 9.28368,0.26652 h 9.28367 z 
       m -28.31708,-3.83645 c 1.95248,-8.49245 3.14621,-13.14574 4.15059,-16.17945 1.31534,-3.97298 4.472,-10.29435 6.30593,-12.628 0.72374,-0.92093 1.31589,-1.75312 1.31589,-1.8493 0,-0.3671 -6.11361,0.14636 -9.6573,0.81108 -11.69569,2.19388 -18.81883,5.08369 -23.16964,9.39977 -2.84682,2.8241 -4.05206,6.70155 -3.03492,9.76385 1.25608,3.78172 6.34202,7.90566 13.10769,10.62842 1.16537,0.46899 9.41117,3.03058 10.09445,3.13588 0.0949,0.0146 0.4942,-1.37238 0.88731,-3.08225 z 
       m 44.71303,1.60516 c 6.76567,-2.18851 12.99288,-5.60638 15.44829,-8.47896 0.57953,-0.67799 1.38887,-1.89418 1.79853,-2.70263 0.64538,-1.27363 0.74403,-1.77026 0.73874,-3.71889 -0.008,-2.98938 -0.80595,-4.69362 -3.41243,-7.28937 -3.86579,-3.84989 -9.402,-6.27571 -19.582,-8.58033 -3.30941,-0.74921 -11.68902,-1.76232 -12.75716,-1.54236 -0.28677,0.059 0.057,0.70841 1.23383,2.33081 4.09647,5.64737 7.34118,14.1964 9.38469,24.72644 0.67648,3.48585 1.29512,6.44334 1.37476,6.5722 0.21368,0.34574 1.6354,0.0214 5.77275,-1.31691 z"
       id="path6228" /></g><metadata
     id="metadata6230"><rdf:RDF><cc:Work
         rdf:about=""><dc:title>TOYODA</dc:title></cc:Work></rdf:RDF></metadata></svg>
